<svg width="75" height="75" viewBox="0 0 75 75" fill="none" xmlns="http://www.w3.org/2000/svg">
<path d="M23.25 49.975C22 49.975 21.0667 49.7 20.45 49.15C19.85 48.6 19.4667 47.8333 19.3 46.85C19.1333 45.8833 19.05 44.5083 19.05 42.725C19.05 41.825 18.9417 41.1417 18.725 40.675C18.5083 40.1917 18.15 39.775 17.65 39.425L17.525 39.35C17.2917 39.2 17.1333 39.0583 17.05 38.925C16.9667 38.7917 16.925 38.625 16.925 38.425L16.925 38.125C16.925 37.925 16.9667 37.7583 17.05 37.625C17.1333 37.4917 17.2917 37.35 17.525 37.2L17.675 37.1C18.1583 36.75 18.5083 36.3417 18.725 35.875C18.9417 35.4083 19.05 34.725 19.05 33.825C19.05 32.0583 19.1333 30.6833 19.3 29.7C19.4667 28.7167 19.85 27.9583 20.45 27.425C21.0667 26.875 22 26.6 23.25 26.6L23.375 26.6C23.5417 26.6 23.675 26.65 23.775 26.75C23.875 26.85 23.925 26.9833 23.925 27.15L23.925 27.5C23.925 27.6667 23.875 27.8 23.775 27.9C23.675 28 23.5417 28.05 23.375 28.05L23.25 28.05C22.4167 28.05 21.8083 28.2583 21.425 28.675C21.0583 29.0917 20.825 29.7083 20.725 30.525C20.625 31.3417 20.575 32.6167 20.575 34.35C20.575 35.3167 20.425 36.1167 20.125 36.75C19.825 37.3833 19.35 37.8917 18.7 38.275C19.35 38.6583 19.825 39.1667 20.125 39.8C20.425 40.4333 20.575 41.2333 20.575 42.2C20.575 43.9333 20.625 45.2083 20.725 46.025C20.825 46.8583 21.0583 47.4833 21.425 47.9C21.8083 48.3167 22.4167 48.525 23.25 48.525L23.375 48.525C23.5417 48.525 23.675 48.575 23.775 48.675C23.875 48.775 23.925 48.9083 23.925 49.075L23.925 49.425C23.925 49.5917 23.875 49.725 23.775 49.825C23.675 49.925 23.5417 49.975 23.375 49.975L23.25 49.975ZM51.725 26.6C52.975 26.6 53.9 26.875 54.5 27.425C55.1167 27.975 55.5083 28.7417 55.675 29.725C55.8417 30.6917 55.925 32.0667 55.925 33.85C55.925 34.75 56.0333 35.4417 56.25 35.925C56.4667 36.3917 56.825 36.8 57.325 37.15L57.45 37.225C57.6833 37.375 57.8417 37.5167 57.925 37.65C58.0083 37.7833 58.05 37.95 58.05 38.15L58.05 38.45C58.05 38.65 58.0083 38.8167 57.925 38.95C57.8417 39.0833 57.6833 39.225 57.45 39.375L57.3 39.475C56.8167 39.825 56.4667 40.2333 56.25 40.7C56.0333 41.1667 55.925 41.85 55.925 42.75C55.925 44.5167 55.8417 45.8917 55.675 46.875C55.5083 47.8583 55.1167 48.6167 54.5 49.15C53.9 49.7 52.975 49.975 51.725 49.975L51.6 49.975C51.4333 49.975 51.3 49.925 51.2 49.825C51.1 49.725 51.05 49.5917 51.05 49.425L51.05 49.075C51.05 48.9083 51.1 48.775 51.2 48.675C51.3 48.575 51.4333 48.525 51.6 48.525L51.725 48.525C52.5583 48.525 53.1583 48.3167 53.525 47.9C53.9083 47.4833 54.15 46.8667 54.25 46.05C54.35 45.2333 54.4 43.9583 54.4 42.225C54.4 41.2583 54.55 40.4583 54.85 39.825C55.15 39.1917 55.625 38.6833 56.275 38.3C55.625 37.9167 55.15 37.4083 54.85 36.775C54.55 36.1417 54.4 35.3417 54.4 34.375C54.4 32.6417 54.35 31.3667 54.25 30.55C54.15 29.7167 53.9083 29.0917 53.525 28.675C53.1583 28.2583 52.5583 28.05 51.725 28.05L51.6 28.05C51.4333 28.05 51.3 28 51.2 27.9C51.1 27.8 51.05 27.6667 51.05 27.5L51.05 27.15C51.05 26.9833 51.1 26.85 51.2 26.75C51.3 26.65 51.4333 26.6 51.6 26.6L51.725 26.6Z" fill="black"/>
<path d="M42.5663 49.4002L29.9261 33.6191C29.6487 33.2727 29.2336 33.1442 28.9992 33.332L27.0176 34.9191C26.7831 35.107 26.8179 35.5401 27.0954 35.8864L39.7355 51.6676L38.1057 52.9729C37.3491 53.579 38.0524 55.2336 39.2204 55.5953L45.8682 57.6542C46.5923 57.8784 47.13 57.4477 47.0692 56.6922L46.5117 49.7552C46.4137 48.5365 44.9526 47.4889 44.196 48.0949L42.5663 49.4002Z" fill="#FF0000"/>
<path d="M31.997 25.7026L44.3151 41.7364C44.5855 42.0883 44.9978 42.2252 45.2361 42.0422L47.2493 40.4955C47.4876 40.3124 47.4615 39.8787 47.1912 39.5268L34.8731 23.493L36.529 22.2209C37.2977 21.6303 36.628 19.9618 35.4676 19.5765L28.8629 17.3835C28.1435 17.1446 27.5972 17.5643 27.6426 18.3209L28.0596 25.2678C28.1329 26.4882 29.5725 27.5653 30.3412 26.9747L31.997 25.7026Z" fill="#1ABCFE"/>
</svg>
