<?xml version="1.0" standalone="no"?>
<!DOCTYPE svg PUBLIC "-//W3C//DTD SVG 20010904//EN"
 "http://www.w3.org/TR/2001/REC-SVG-20010904/DTD/svg10.dtd">
<svg version="1.0" xmlns="http://www.w3.org/2000/svg"
 width="700.000000pt" height="700.000000pt" viewBox="0 0 700.000000 700.000000"
 preserveAspectRatio="xMidYMid meet">
<metadata>
Created by potrace 1.14, written by Peter Selinger 2001-2017
</metadata>
<g transform="translate(0.000000,700.000000) scale(0.100000,-0.100000)"
fill="#000000" stroke="none">
<path d="M2643 5382 c-13 -2 -32 -15 -44 -30 -19 -25 -20 -35 -14 -147 3 -66
8 -145 10 -175 2 -30 7 -102 10 -160 13 -235 16 -255 37 -298 27 -56 89 -102
138 -102 28 0 50 10 96 46 32 25 71 55 85 65 l27 19 158 -207 c88 -114 176
-229 198 -257 21 -28 49 -64 61 -81 34 -43 273 -353 523 -680 119 -154 222
-285 231 -292 9 -7 25 -13 35 -13 29 0 223 150 229 177 6 34 4 37 -398 558
-72 94 -185 240 -250 325 -65 85 -146 191 -180 235 -250 325 -335 438 -335
443 1 4 39 35 85 69 97 73 110 101 81 178 -34 88 -58 100 -422 220 -181 59
-331 108 -334 109 -3 1 -15 0 -27 -2z"/>
<path d="M2037 4500 c-82 -20 -136 -56 -175 -115 -60 -91 -72 -166 -87 -540
-6 -171 -22 -213 -106 -289 -28 -25 -54 -46 -58 -46 -14 0 -31 -51 -31 -92 0
-35 5 -45 37 -72 151 -126 151 -126 168 -521 6 -138 10 -176 27 -240 25 -100
80 -172 164 -213 36 -18 138 -37 187 -35 9 0 26 1 36 2 33 2 48 80 22 111 -11
13 -34 20 -78 24 -160 12 -208 94 -218 376 -2 52 -4 139 -6 192 -4 193 -39
285 -142 365 l-28 21 35 27 c80 61 122 152 131 282 3 43 7 143 10 223 6 198
13 246 44 310 32 65 74 97 139 105 115 14 117 15 120 69 2 27 -2 54 -8 60 -16
16 -111 15 -183 -4z"/>
<path d="M4784 4506 c-20 -15 -25 -89 -7 -107 5 -5 43 -15 83 -20 173 -24 207
-100 215 -484 5 -202 11 -246 46 -320 30 -64 45 -84 96 -127 l32 -26 -22 -15
c-65 -43 -115 -121 -136 -212 -6 -27 -13 -140 -16 -249 -3 -109 -7 -213 -10
-230 -20 -126 -59 -196 -123 -223 -20 -9 -62 -18 -92 -20 -68 -5 -89 -26 -84
-79 2 -21 8 -42 14 -48 5 -5 39 -10 75 -9 131 3 229 52 286 141 50 79 67 167
74 392 8 232 13 277 33 324 20 43 72 102 131 146 30 22 34 31 37 79 3 59 0 63
-94 140 -23 18 -53 57 -67 85 -26 55 -31 93 -40 351 -5 151 -7 170 -25 258
-24 117 -106 213 -208 242 -75 22 -175 28 -198 11z"/>
<path d="M2720 3892 c-15 -6 -88 -60 -100 -72 -3 -3 -25 -21 -50 -40 -25 -19
-48 -39 -52 -45 -26 -35 -3 -66 568 -780 317 -396 586 -732 600 -747 l24 -28
-63 -51 c-113 -93 -117 -97 -117 -140 0 -49 29 -108 69 -142 17 -14 78 -40
143 -61 423 -133 547 -169 577 -170 24 0 39 7 53 24 19 23 20 35 13 150 -3 69
-8 136 -10 150 -1 14 -6 68 -10 120 -4 52 -8 111 -10 130 -2 19 -6 70 -10 113
-7 95 -14 115 -61 166 -32 36 -81 61 -120 61 -11 0 -124 -83 -169 -123 -18
-17 -20 -17 -36 0 -9 10 -278 345 -598 745 -320 400 -590 732 -601 738 -21 11
-19 11 -40 2z"/>
</g>
</svg>
